# xmcd CD database file
#
# Track frame offsets:
#	150
#	33885
#	57805
#	83805
#	111465
#	143110
#	165278
#	180970
#	193788
#
# Disc length: 2746 seconds
#
# Revision: 0
# Processed by: cddbd v1.5.1PL0 Copyright (c) Steve Scherf et al.
# Submitted via: CDex 1.51
#
DISCID=6b0ab809
DTITLE=Oscar D'Leon y Dimension Latina - Dos Colosos En Concierto
DYEAR=1991
DGENRE=Salsa
TTITLE0=Taboga
TTITLE1=Parampampam
TTITLE2=El Cachumbambe
TTITLE3=Mi Negra Esta Cansa
TTITLE4=Mata Siguaraya
TTITLE5=Lloraras
TTITLE6=El Malasuerte
TTITLE7=Cumbia Latina
TTITLE8=Good Morning Mr. Walker
EXTD=YEAR: 1991
EXTT0=
EXTT1=
EXTT2=
EXTT3=
EXTT4=
EXTT5=
EXTT6=
EXTT7=
EXTT8=
PLAYORDER=
